HIERARCHY
ROOT Hips
{
	OFFSET 0.000000 0.000000 0.000000
	CHANNELS 6 Xposition Yposition Zposition Zrotation Yrotation Xrotation 
	JOINT LHipJoint
	{
		OFFSET 0.000000 0.000000 0.000000
		CHANNELS 3 Zrotation Yrotation Xrotation
		JOINT LeftUpLeg
		{
			OFFSET 1.363060 -1.794630 0.839290
			CHANNELS 3 Zrotation Yrotation Xrotation
			JOINT LeftLeg
			{
				OFFSET 2.448110 -6.726130 0.000000
				CHANNELS 3 Zrotation Yrotation Xrotation
				JOINT LeftFoot
				{
					OFFSET 2.562200 -7.039590 0.000000
					CHANNELS 3 Zrotation Yrotation Xrotation
					JOINT LeftToeBase
					{
						OFFSET 0.157640 -0.433110 2.322550
						CHANNELS 3 Zrotation Yrotation Xrotation
						End Site
						{
							OFFSET 0.000000 0.000000 0.000000
						}
					}
				}
			}
		}
	}
	JOINT RHipJoint
	{
		OFFSET 0.000000 0.000000 0.000000
		CHANNELS 3 Zrotation Yrotation Xrotation
		JOINT RightUpLeg
		{
			OFFSET -1.305520 -1.794630 0.839290
			CHANNELS 3 Zrotation Yrotation Xrotation
			JOINT RightLeg
			{
				OFFSET -2.542530 -6.985550 0.000000
				CHANNELS 3 Zrotation Yrotation Xrotation
				JOINT RightFoot
				{
					OFFSET -2.568260 -7.056230 0.000000
					CHANNELS 3 Zrotation Yrotation Xrotation
					JOINT RightToeBase
					{
						OFFSET -0.164730 -0.452590 2.363150
						CHANNELS 3 Zrotation Yrotation Xrotation
						End Site
						{
							OFFSET 0.000000 0.000000 0.000000
						}
					}
				}
			}
		}
	}
	JOINT LowerBack
	{
		OFFSET 0.000000 0.000000 0.000000
		CHANNELS 3 Zrotation Yrotation Xrotation
		JOINT Spine
		{
			OFFSET 0.028270 2.035590 -0.193380
			CHANNELS 3 Zrotation Yrotation Xrotation
			JOINT Spine1
			{
				OFFSET 0.056720 2.048850 -0.042750
				CHANNELS 3 Zrotation Yrotation Xrotation
				JOINT Neck
				{
					OFFSET 0.000000 0.000000 0.000000
					CHANNELS 3 Zrotation Yrotation Xrotation
					JOINT Neck1
					{
						OFFSET -0.054170 1.746240 0.172020
						CHANNELS 3 Zrotation Yrotation Xrotation
						JOINT Head
						{
							OFFSET 0.104070 1.761360 -0.123970
							CHANNELS 3 Zrotation Yrotation Xrotation
							End Site
							{
								OFFSET 0.000000 0.000000 0.000000
							}
						}
					}
				}
				JOINT LeftShoulder
				{
					OFFSET 0.000000 0.000000 0.000000
					CHANNELS 3 Zrotation Yrotation Xrotation
					JOINT LeftArm
					{
						OFFSET 3.362410 1.200890 -0.311210
						CHANNELS 3 Zrotation Yrotation Xrotation
						JOINT LeftForeArm
						{
							OFFSET 4.983000 -0.000000 -0.000000
							CHANNELS 3 Zrotation Yrotation Xrotation
							JOINT LeftHand
							{
								OFFSET 3.483560 -0.000000 -0.000000
								CHANNELS 3 Zrotation Yrotation Xrotation
								JOINT LeftFingerBase
								{
									OFFSET 0.000000 0.000000 0.000000
									CHANNELS 3 Zrotation Yrotation Xrotation
									JOINT LeftHandIndex1
									{
										OFFSET 0.715260 -0.000000 -0.000000
										CHANNELS 3 Zrotation Yrotation Xrotation
										End Site
										{
											OFFSET 0.000000 0.000000 0.000000
										}
									}
								}
								JOINT LThumb
								{
									OFFSET 0.000000 0.000000 0.000000
									CHANNELS 3 Zrotation Yrotation Xrotation
									End Site
									{
										OFFSET 0.000000 0.000000 0.000000
									}
								}
							}
						}
					}
				}
				JOINT RightShoulder
				{
					OFFSET 0.000000 0.000000 0.000000
					CHANNELS 3 Zrotation Yrotation Xrotation
					JOINT RightArm
					{
						OFFSET -3.136600 1.374050 -0.404650
						CHANNELS 3 Zrotation Yrotation Xrotation
						JOINT RightForeArm
						{
							OFFSET -5.241900 -0.000000 -0.000000
							CHANNELS 3 Zrotation Yrotation Xrotation
							JOINT RightHand
							{
								OFFSET -3.444170 -0.000000 -0.000000
								CHANNELS 3 Zrotation Yrotation Xrotation
								JOINT RightFingerBase
								{
									OFFSET 0.000000 0.000000 0.000000
									CHANNELS 3 Zrotation Yrotation Xrotation
									JOINT RightHandIndex1
									{
										OFFSET -0.622530 -0.000000 -0.000000
										CHANNELS 3 Zrotation Yrotation Xrotation
										End Site
										{
											OFFSET 0.000000 0.000000 0.000000
										}
									}
								}
								JOINT RThumb
								{
									OFFSET 0.000000 0.000000 0.000000
									CHANNELS 3 Zrotation Yrotation Xrotation
									End Site
									{
										OFFSET 0.000000 0.000000 0.000000
									}
								}
							}
						}
					}
				}
			}
		}
	}
}
MOTION
Frames: 4
Frame Time: 0.008333
0.353349 18.248221 4.805686 -5.864650 -6.915269 5.389466 0.446365 1.944074 1.459262 -5.937993 -9.615952 -50.436542 15.833050 20.288553 77.761766 0.590854 -4.547364 15.710608 0.482000 -4.452100 -12.352100 -0.819276 -4.646237 5.454438 27.764758 5.129140 21.222866 0.872815 -0.821650 6.944830 0.350278 -10.394427 26.494842 -0.038400 -1.264900 3.477900 8.952177 3.038222 7.833086 0.665329 4.707619 13.399698 -6.586057 2.751971 -12.523084 -2.963182 -0.650099 -8.992048 1.454113 -0.697112 -4.535467 0.156700 -0.309800 -1.478500 -4.305808 5.550901 -3.111749 -81.704981 33.199486 36.929951 111.724819 -65.448661 -81.705153 0.620473 -1.413173 -25.311089 37.284857 6.912329 6.681800 -7.125000 0.000000 0.000000 9.270900 40.859900 -0.955800 4.955350 -3.956249 -1.494292 78.678591 12.860255 38.864395 -119.971829 60.330528 -89.626008 0.128330 1.406160 -5.921941 -36.792037 27.699105 -18.255000 7.125000 0.000000 0.000000 -4.298900 1.234600 -4.402800 
0.340787 18.345402 5.380431 -5.761854 -5.823918 5.161345 0.313011 1.929052 1.383318 -5.932533 -11.036519 -49.612396 14.020996 19.850358 72.516077 0.675349 -4.535444 16.384965 0.499900 -4.532900 -12.581000 -0.903706 -4.779566 5.526810 26.902450 3.367763 24.894784 1.344296 0.987920 1.233515 -0.346248 -14.095858 32.505328 -0.181100 -2.740900 7.558300 9.084405 2.877220 7.938158 0.410686 4.538771 12.958391 -6.595661 2.655429 -12.745689 -2.919879 -0.826349 -8.275913 1.516904 -0.983052 -4.458316 0.166700 -0.453600 -1.543500 -4.247678 5.598240 -3.179943 -81.589777 34.606709 36.547752 112.205322 -65.429505 -81.963786 0.608221 -1.391402 -25.131406 37.400886 7.132121 6.852000 -7.125000 0.000000 0.000000 9.385200 41.108100 -0.909800 4.969550 -3.998776 -1.487550 78.282462 12.262342 39.326144 -121.316807 59.943114 -90.517583 0.079202 1.365921 -5.397211 -37.643940 28.314721 -19.154400 7.125000 0.000000 0.000000 -4.612200 2.232100 -4.803700 
0.327320 18.437257 5.939599 -6.106123 -4.596889 4.920966 0.175655 1.864963 1.296098 -5.398952 -12.336741 -48.667529 12.148427 19.231891 67.010964 0.793419 -4.483002 17.454948 0.450300 -4.305100 -11.936700 -0.853777 -4.757612 5.531378 27.125089 2.176959 25.756351 1.315010 0.824141 1.160041 -0.980915 -16.053999 36.371797 -0.381800 -3.968300 10.987600 9.492888 2.597574 8.391399 0.543050 4.283165 12.457551 -6.767734 2.467663 -13.183921 -2.878284 -0.991409 -8.003132 1.491738 -1.215199 -4.013066 0.143100 -0.564000 -1.462200 -4.221177 5.659822 -3.226301 -81.479550 35.785443 36.196350 112.426023 -65.447305 -82.080009 0.607055 -1.388214 -25.026038 36.887904 6.596268 6.321200 -7.125000 0.000000 0.000000 8.884800 40.375800 -1.022200 4.959761 -4.048232 -1.467464 77.889487 11.599687 39.883479 -122.596732 59.562833 -91.363738 0.028590 1.327434 -4.949723 -38.616461 28.819453 -20.085300 7.125000 0.000000 0.000000 -5.010600 3.154900 -5.298600 
0.319381 18.521775 6.505701 -6.540102 -3.842039 4.940749 0.046862 1.780459 1.186320 -4.809142 -13.169206 -47.791396 10.240769 18.431033 61.299268 0.927605 -4.276754 18.629028 0.408600 -4.103500 -11.368100 -0.799078 -4.730218 5.539643 27.415029 1.565949 26.627469 1.297514 0.678920 1.090165 -1.791944 -17.177636 40.099566 -0.653000 -5.169000 14.391100 9.915016 2.479133 8.461148 0.751642 4.195237 11.964087 -6.952196 2.376461 -13.361840 -2.878921 -1.066811 -7.886713 1.403859 -1.310715 -3.474698 0.107100 -0.603900 -1.327200 -4.207647 5.711794 -3.264490 -81.418700 36.818096 35.894034 113.059444 -65.368693 -82.457523 0.603511 -1.369654 -24.975110 36.572205 7.077832 6.576000 -7.125000 0.000000 0.000000 8.623300 40.894300 -0.880500 4.946220 -4.076549 -1.444377 77.510352 10.946232 40.591793 -123.668523 59.214410 -92.112393 -0.010427 1.322530 -4.139109 -38.430574 28.064823 -19.467100 7.125000 0.000000 0.000000 -5.033500 2.246700 -5.246900 
